<?xml version="1.0" standalone="no"?><!DOCTYPE svg PUBLIC "-//W3C//DTD SVG 1.1//EN" "http://www.w3.org/Graphics/SVG/1.1/DTD/svg11.dtd"><svg t="1729181806511" class="icon" viewBox="0 0 1210 1024" version="1.1" xmlns="http://www.w3.org/2000/svg" p-id="5410" xmlns:xlink="http://www.w3.org/1999/xlink" width="302.5" height="256"><path d="M1182.72 143.546182c-38.446545 16.570182-78.848 28.066909-120.226909 34.304 19.362909-3.351273 47.802182-38.167273 59.112727-52.270546 17.221818-21.271273 30.347636-45.614545 38.725818-71.68 0-1.861818 1.908364-4.654545 0-6.050909a6.609455 6.609455 0 0 0-6.376727 0c-44.916364 24.343273-92.718545 42.961455-142.289454 55.342546a9.914182 9.914182 0 0 1-9.960728-2.513455 138.286545 138.286545 0 0 0-12.427636-13.032727 259.211636 259.211636 0 0 0-67.956364-43.938909A238.778182 238.778182 0 0 0 815.476364 26.298182a256 256 0 0 0-100.538182 27.648 260.561455 260.561455 0 0 0-79.592727 67.490909 255.627636 255.627636 0 0 0-48.407273 96.814545 265.960727 265.960727 0 0 0-2.466909 102.306909c0 5.771636 0 6.609455-4.980364 5.771637-196.980364-28.997818-358.632727-99.002182-490.728727-249.157818-5.771636-6.656-8.843636-6.656-13.498182 0C17.733818 164.584727 45.614545 302.824727 117.480727 371.153455c9.634909 9.122909 19.595636 17.966545 30.114909 26.251636a246.597818 246.597818 0 0 1-94.487272-26.251636c-5.585455-3.584-8.610909-1.675636-8.843637 4.980363a163.048727 163.048727 0 0 0 0 27.648 251.205818 251.205818 0 0 0 154.717091 200.238546c10.053818 4.282182 20.48 7.540364 31.185455 9.681454-30.440727 6.004364-61.719273 6.935273-92.532364 2.792727-6.609455-1.396364-9.122909 2.187636-6.609454 8.564364 40.587636 110.592 128.744727 144.337455 193.396363 163.141818 8.843636 1.396364 17.687273 1.396364 27.648 3.584l-1.675636 1.675637c-19.083636 34.862545-96.162909 58.368-131.537455 70.516363-64.558545 23.226182-133.352727 32.116364-201.681454 26.018909-10.798545-1.675636-13.265455-1.396364-16.058182 0-2.746182 1.396364 0 4.421818 3.072 7.168 13.824 9.122909 27.601455 17.128727 41.984 24.901819 42.775273 23.365818 87.970909 41.890909 134.842182 55.296 242.594909 66.932364 515.584 17.687273 697.716363-163.421091C1021.858909 671.790545 1072.128 475.694545 1072.128 279.272727c0-7.447273 9.122909-11.869091 14.382545-15.732363a474.717091 474.717091 0 0 0 94.766546-99.002182c4.608-5.585455 6.981818-12.706909 6.609454-19.921455 0-4.189091 0-3.351273-5.21309-1.117091z" p-id="5411" fill="#9ea3af"></path></svg>